<svg width="420" height="40" viewBox="0 0 360 40" fill="none" xmlns="http://www.w3.org/2000/svg">
    <style>svg { fill: black } @media (prefers-color-scheme: dark) { svg { fill: white } }</style>
    <path d="M0.0650727 13.0653H6.0709C8.60538 13.0653 10.5728 13.6669 11.9732 14.87C13.3834 16.0633 14.0885 17.7349 14.0885 19.8847C14.0885 21.2752 13.7532 22.508 13.0826 23.5829C12.4219 24.648 11.5097 25.4862 10.346 26.0976C9.18229 26.6992 7.84109 27 6.32238 27H0.0650727L-0.00889064 26.0089L1.45558 25.6835C1.49503 25.5454 1.52955 25.1411 1.55913 24.4705C1.58872 23.79 1.60351 23.006 1.60351 22.1184V17.9913C1.60351 17.0248 1.58872 16.2112 1.55913 15.5505C1.52955 14.8897 1.49503 14.5051 1.45558 14.3966L-0.00889064 14.0712L0.0650727 13.0653ZM4.0443 14.441C4.0443 14.6481 4.03444 15.0081 4.01472 15.5209C4.00486 16.0337 3.99992 16.8572 3.99992 17.9913V22.1184C3.99992 22.8087 4.00979 23.4547 4.02951 24.0563C4.04923 24.6578 4.07882 25.1263 4.11827 25.4616C5.05514 25.6095 5.85394 25.6835 6.51468 25.6835C9.7099 25.6835 11.3075 23.9823 11.3075 20.58C11.3075 18.4597 10.8144 16.8818 9.82824 15.8463C8.85192 14.801 7.51072 14.2783 5.80463 14.2783C5.54823 14.2783 5.2721 14.2931 4.97624 14.3227C4.68039 14.3424 4.36974 14.3818 4.0443 14.441ZM19.7926 27.1775C18.8459 27.1775 17.9928 26.9655 17.2335 26.5414C16.484 26.1174 15.8873 25.5207 15.4435 24.7515C15.0096 23.9823 14.7927 23.0799 14.7927 22.0445C14.7927 20.9301 15.0293 19.9587 15.5027 19.1303C15.9761 18.3019 16.5924 17.6609 17.3518 17.2072C18.121 16.7536 18.9445 16.5317 19.8222 16.5416C21.1338 16.5514 22.1397 16.9755 22.8399 17.8137C23.5499 18.6421 23.905 19.7664 23.905 21.1865V21.6598H16.7305V20.5504H22.1002L21.7896 20.9498V20.3581C21.7896 19.4903 21.5973 18.8196 21.2127 18.3463C20.8281 17.8729 20.3005 17.6362 19.6299 17.6362C18.979 17.6362 18.4021 17.9222 17.8991 18.4942C17.406 19.0563 17.1595 19.9094 17.1595 21.0533V21.4084C17.1595 22.6411 17.4701 23.6125 18.0914 24.3225C18.7226 25.0326 19.546 25.3876 20.5618 25.3876C21.1141 25.3876 21.6072 25.284 22.0411 25.077C22.475 24.8699 22.899 24.5148 23.3132 24.0119L23.9493 24.6036C23.4957 25.4714 22.9138 26.1174 22.2038 26.5414C21.4937 26.9655 20.69 27.1775 19.7926 27.1775ZM27.7747 27.1775C27.0943 27.1775 26.5025 27.0444 25.9996 26.7781C25.5065 26.502 25.1219 26.1568 24.8458 25.7426C24.5795 25.3284 24.4464 24.9192 24.4464 24.5148C24.4464 23.9626 24.6189 23.5089 24.9641 23.1539C25.3093 22.7989 25.8714 22.4981 26.6505 22.2516L30.3043 21.0681V19.9735C30.3043 19.4212 30.0528 18.9429 29.5498 18.5386C29.0567 18.1244 28.47 17.9173 27.7895 17.9173C27.4246 17.9173 27.1781 17.9962 27.0499 18.154C26.9217 18.3019 26.8428 18.5928 26.8132 19.0267L26.754 20.1658C26.113 20.3137 25.5755 20.294 25.1416 20.1066C24.7077 19.9192 24.4907 19.6135 24.4907 19.1895C24.4907 18.8344 24.7077 18.4696 25.1416 18.0948C25.5854 17.7102 26.1179 17.3749 26.7392 17.0889C27.3605 16.8029 27.9424 16.6205 28.4848 16.5416C29.7273 16.5416 30.7234 16.8572 31.4729 17.4883C32.2224 18.1096 32.6021 18.9331 32.6119 19.9587L32.538 23.7012C32.538 24.0464 32.5478 24.362 32.5675 24.648C32.5971 24.9241 32.6464 25.1312 32.7155 25.2693L34.2243 25.5651V26.3935L32.9522 26.8817C32.7056 26.9704 32.4788 27.0394 32.2717 27.0888C32.0745 27.1479 31.8969 27.1775 31.7392 27.1775C31.2066 27.1775 30.8467 26.9014 30.6593 26.3491L30.3634 25.3432L30.7628 25.3876C29.7471 26.5809 28.751 27.1775 27.7747 27.1775ZM28.6031 25.5651C29.2145 25.5651 29.7816 25.2791 30.3043 24.7071V22.2516L27.9818 22.8285C27.2718 23.006 26.9167 23.4103 26.9167 24.0415C26.9167 24.4359 27.0795 24.791 27.4049 25.1065C27.7402 25.4123 28.1396 25.5651 28.6031 25.5651ZM33.7746 27L33.7155 26.0829L35.1799 25.6982C35.1997 25.5898 35.2194 25.3383 35.2391 24.9438C35.2687 24.5395 35.2884 23.9675 35.2983 23.2279L35.3279 21.4084C35.3279 20.8956 35.3032 20.4074 35.2539 19.9439C35.2144 19.4804 35.1651 19.081 35.106 18.7457L33.5971 18.4055V17.5327L37.0882 16.586L37.5024 16.941L37.4136 18.8936L37.4876 18.9084C37.9511 18.0208 38.4245 17.4193 38.9077 17.1037C39.3909 16.7783 39.8593 16.6155 40.313 16.6155C40.7075 16.6155 41.0329 16.7142 41.2893 16.9114C41.5556 17.1086 41.6887 17.4094 41.6887 17.8137C41.6887 18.2378 41.5457 18.5632 41.2597 18.7901C40.9836 19.0169 40.6335 19.1303 40.2094 19.1303C39.598 19.1303 39.031 18.869 38.5083 18.3463L39.0112 18.4646C38.4393 18.8295 37.9363 19.4705 37.5024 20.3877L37.532 22.4734C37.5517 23.1638 37.5714 23.8196 37.5911 24.4409C37.6207 25.0523 37.6503 25.4714 37.6799 25.6982L39.7361 26.0385L39.6917 27H33.7746ZM48.8365 28.923C48.8365 30.2643 49.6698 31.0778 51.3365 31.3638L51.085 32.3993C49.5663 32.1922 48.4075 31.7731 47.6087 31.1419C46.8099 30.5108 46.4105 29.6578 46.4105 28.5828C46.4105 28.001 46.5091 27.4142 46.7064 26.8225C46.9135 26.2209 47.1156 25.6391 47.3129 25.077C47.52 24.505 47.6235 23.9774 47.6235 23.4941C47.6235 22.9024 47.4362 22.4586 47.0614 22.1628C46.6867 21.8571 46.0506 21.6845 45.1532 21.6451V20.4616C46.0506 20.4222 46.6867 20.2545 47.0614 19.9587C47.4362 19.653 47.6235 19.1993 47.6235 18.5978C47.6235 18.1047 47.52 17.5771 47.3129 17.0149C47.1156 16.4528 46.9135 15.871 46.7064 15.2694C46.5091 14.6678 46.4105 14.0761 46.4105 13.4943C46.4105 12.4095 46.8099 11.5564 47.6087 10.9352C48.4075 10.3139 49.5663 9.89473 51.085 9.67778L51.3365 10.7133C50.518 10.8612 49.8967 11.1324 49.4726 11.5269C49.0486 11.9213 48.8365 12.4687 48.8365 13.1688C48.8365 13.731 48.9154 14.2734 49.0732 14.796C49.2409 15.3089 49.4036 15.8365 49.5614 16.3789C49.729 16.9114 49.8128 17.4932 49.8128 18.1244C49.8128 18.9331 49.5614 19.6037 49.0584 20.1362C48.5555 20.6687 47.8109 20.9942 46.8247 21.1125V20.7871C47.7912 20.9251 48.5308 21.2851 49.0436 21.8669C49.5564 22.4389 49.8128 23.1391 49.8128 23.9675C49.8128 24.5987 49.729 25.1805 49.5614 25.713C49.4036 26.2456 49.2409 26.7682 49.0732 27.2811C48.9154 27.8037 48.8365 28.3511 48.8365 28.923ZM56.9222 27.1775C56.0051 27.1775 55.1619 26.9704 54.3927 26.5562C53.6333 26.142 53.0268 25.5552 52.5732 24.7959C52.1195 24.0365 51.8927 23.1342 51.8927 22.0888C51.8927 21.0632 52.1294 20.1313 52.6027 19.293C53.086 18.4548 53.7467 17.7891 54.585 17.296C55.4232 16.7931 56.3699 16.5416 57.4252 16.5416C58.4606 16.5416 59.2792 16.7388 59.8807 17.1333C60.4922 17.5179 60.7979 17.9666 60.7979 18.4794C60.7979 19.15 60.4577 19.4853 59.7772 19.4853C59.3137 19.4853 58.8403 19.2486 58.3571 18.7753L56.9814 17.4439L57.9281 17.6954C57.3561 17.5771 56.7989 17.6461 56.2565 17.9025C55.7141 18.149 55.2654 18.578 54.9104 19.1895C54.5652 19.791 54.3927 20.5701 54.3927 21.5267C54.3927 22.7693 54.7033 23.721 55.3246 24.3817C55.9557 25.0424 56.7348 25.3728 57.6618 25.3728C58.224 25.3728 58.722 25.2693 59.1559 25.0622C59.5997 24.8452 60.0188 24.4902 60.4133 23.9971L61.0789 24.5888C60.6253 25.4665 60.0435 26.1174 59.3334 26.5414C58.6234 26.9655 57.8196 27.1775 56.9222 27.1775ZM60.4665 27L60.4074 26.0829L61.8718 25.6982C61.8916 25.5898 61.9113 25.3383 61.931 24.9438C61.9606 24.5395 61.9803 23.9675 61.9902 23.2279L62.0198 21.4084C62.0198 20.8956 61.9951 20.4074 61.9458 19.9439C61.9064 19.4804 61.857 19.081 61.7979 18.7457L60.289 18.4055V17.5327L63.7801 16.586L64.1943 16.941L64.1055 18.8936L64.1795 18.9084C64.643 18.0208 65.1164 17.4193 65.5996 17.1037C66.0828 16.7783 66.5513 16.6155 67.0049 16.6155C67.3994 16.6155 67.7248 16.7142 67.9812 16.9114C68.2475 17.1086 68.3806 17.4094 68.3806 17.8137C68.3806 18.2378 68.2376 18.5632 67.9516 18.7901C67.6755 19.0169 67.3254 19.1303 66.9013 19.1303C66.2899 19.1303 65.7229 18.869 65.2002 18.3463L65.7031 18.4646C65.1312 18.8295 64.6282 19.4705 64.1943 20.3877L64.2239 22.4734C64.2436 23.1638 64.2633 23.8196 64.283 24.4409C64.3126 25.0523 64.3422 25.4714 64.3718 25.6982L66.428 26.0385L66.3836 27H60.4665ZM78.4337 25.1805L79.9426 25.5651V26.4083L76.5403 27.2515L76.1113 26.9556L76.1408 25.4172L76.0669 25.3876C75.6034 26.0681 75.1251 26.5365 74.632 26.7929C74.1389 27.0493 73.6113 27.1775 73.0492 27.1775C71.9545 27.1775 71.0522 26.8471 70.3421 26.1864C69.6321 25.5158 69.277 24.505 69.277 23.1539V21.1125C69.277 20.7378 69.2672 20.3532 69.2475 19.9587C69.2277 19.5642 69.1982 19.1599 69.1587 18.7457L67.5463 18.4055V17.5327L71.1261 16.586L71.6291 16.9854C71.5896 17.4587 71.5601 17.9913 71.5403 18.583C71.5305 19.1747 71.5255 19.791 71.5255 20.4321L71.5107 22.8581C71.5107 23.7851 71.7178 24.4507 72.132 24.8551C72.5561 25.2495 73.1133 25.4468 73.8036 25.4468C74.1882 25.4468 74.5827 25.3432 74.987 25.1361C75.4012 24.9192 75.7612 24.5691 76.0669 24.0858V21.4527C76.0669 20.4074 76.0274 19.505 75.9485 18.7457L74.2178 18.4055V17.5327L77.9012 16.586L78.3154 16.941C78.2956 17.5327 78.2809 18.0849 78.271 18.5978C78.271 19.1007 78.271 19.6875 78.271 20.3581V22.1184C78.271 22.8383 78.2858 23.4547 78.3154 23.9675C78.3548 24.4803 78.3943 24.8846 78.4337 25.1805ZM83.5313 27.1775C82.9297 27.1775 82.3232 27.1134 81.7118 26.9852C81.1003 26.857 80.5875 26.6746 80.1733 26.4379L80.055 23.8196H81.3272L81.8301 25.5355C82.3528 25.9004 82.979 26.0829 83.7088 26.0829C84.2315 26.0829 84.6457 25.9645 84.9514 25.7278C85.2571 25.4813 85.4099 25.1558 85.4099 24.7515C85.4099 24.3472 85.262 24.002 84.9662 23.716C84.6802 23.43 84.1033 23.1095 83.2354 22.7545C82.1013 22.291 81.3025 21.8275 80.839 21.364C80.3755 20.8906 80.1437 20.2891 80.1437 19.5593C80.1437 18.6816 80.5382 17.9617 81.3272 17.3996C82.1161 16.8276 83.1368 16.5416 84.3892 16.5416C85.405 16.5416 86.2778 16.6994 87.0075 17.0149L87.259 19.5593H86.0016L85.4543 17.9173C85.0993 17.7102 84.6802 17.6067 84.1969 17.6067C83.6644 17.6067 83.2403 17.7349 82.9248 17.9913C82.6092 18.2378 82.4514 18.5534 82.4514 18.938C82.4514 19.3719 82.624 19.7319 82.9691 20.0179C83.3242 20.3038 83.9652 20.649 84.8922 21.0533C85.9375 21.507 86.6722 21.9705 87.0963 22.4439C87.5302 22.9074 87.7472 23.4793 87.7472 24.1598C87.7472 25.0572 87.3527 25.787 86.5638 26.3491C85.7748 26.9014 84.764 27.1775 83.5313 27.1775ZM95.4187 25.3728C95.1327 25.9448 94.7135 26.3886 94.1613 26.7041C93.609 27.0197 93.0124 27.1775 92.3714 27.1775C91.3753 27.1775 90.5519 26.8817 89.901 26.29C89.26 25.6982 88.9395 24.7959 88.9395 23.5829L88.9986 18.0356H87.3419V17.4587L90.7146 14.5446H91.2767L91.2323 17.4587L91.188 23.2575C91.188 24.7466 91.8438 25.4911 93.1554 25.4911C93.826 25.4911 94.4226 25.2446 94.9453 24.7515L95.4187 25.3728ZM90.1969 18.0356V16.7487H94.7234V18.0356H90.1969ZM98.3417 27.1775C97.6612 27.1775 97.0695 27.0444 96.5666 26.7781C96.0735 26.502 95.6889 26.1568 95.4127 25.7426C95.1465 25.3284 95.0133 24.9192 95.0133 24.5148C95.0133 23.9626 95.1859 23.5089 95.5311 23.1539C95.8763 22.7989 96.4384 22.4981 97.2175 22.2516L100.871 21.0681V19.9735C100.871 19.4212 100.62 18.9429 100.117 18.5386C99.6237 18.1244 99.037 17.9173 98.3565 17.9173C97.9916 17.9173 97.7451 17.9962 97.6169 18.154C97.4887 18.3019 97.4098 18.5928 97.3802 19.0267L97.321 20.1658C96.68 20.3137 96.1425 20.294 95.7086 20.1066C95.2747 19.9192 95.0577 19.6135 95.0577 19.1895C95.0577 18.8344 95.2747 18.4696 95.7086 18.0948C96.1524 17.7102 96.6849 17.3749 97.3062 17.0889C97.9275 16.8029 98.5093 16.6205 99.0517 16.5416C100.294 16.5416 101.29 16.8572 102.04 17.4883C102.789 18.1096 103.169 18.9331 103.179 19.9587L103.105 23.7012C103.105 24.0464 103.115 24.362 103.135 24.648C103.164 24.9241 103.213 25.1312 103.282 25.2693L104.791 25.5651V26.3935L103.519 26.8817C103.273 26.9704 103.046 27.0394 102.839 27.0888C102.641 27.1479 102.464 27.1775 102.306 27.1775C101.774 27.1775 101.414 26.9014 101.226 26.3491L100.93 25.3432L101.33 25.3876C100.314 26.5809 99.318 27.1775 98.3417 27.1775ZM99.1701 25.5651C99.7815 25.5651 100.349 25.2791 100.871 24.7071V22.2516L98.5488 22.8285C97.8387 23.006 97.4837 23.4103 97.4837 24.0415C97.4837 24.4359 97.6464 24.791 97.9719 25.1065C98.3072 25.4123 98.7066 25.5651 99.1701 25.5651ZM109.637 27.1775C108.72 27.1775 107.877 26.9704 107.108 26.5562C106.348 26.142 105.742 25.5552 105.288 24.7959C104.835 24.0365 104.608 23.1342 104.608 22.0888C104.608 21.0632 104.845 20.1313 105.318 19.293C105.801 18.4548 106.462 17.7891 107.3 17.296C108.138 16.7931 109.085 16.5416 110.14 16.5416C111.176 16.5416 111.994 16.7388 112.596 17.1333C113.207 17.5179 113.513 17.9666 113.513 18.4794C113.513 19.15 113.173 19.4853 112.492 19.4853C112.029 19.4853 111.556 19.2486 111.072 18.7753L109.697 17.4439L110.643 17.6954C110.071 17.5771 109.514 17.6461 108.972 17.9025C108.429 18.149 107.981 18.578 107.626 19.1895C107.28 19.791 107.108 20.5701 107.108 21.5267C107.108 22.7693 107.418 23.721 108.04 24.3817C108.671 25.0424 109.45 25.3728 110.377 25.3728C110.939 25.3728 111.437 25.2693 111.871 25.0622C112.315 24.8452 112.734 24.4902 113.128 23.9971L113.794 24.5888C113.34 25.4665 112.759 26.1174 112.049 26.5414C111.339 26.9655 110.535 27.1775 109.637 27.1775ZM118.477 27.1775C117.531 27.1775 116.678 26.9655 115.918 26.5414C115.169 26.1174 114.572 25.5207 114.128 24.7515C113.695 23.9823 113.478 23.0799 113.478 22.0445C113.478 20.9301 113.714 19.9587 114.188 19.1303C114.661 18.3019 115.277 17.6609 116.037 17.2072C116.806 16.7536 117.629 16.5317 118.507 16.5416C119.819 16.5514 120.825 16.9755 121.525 17.8137C122.235 18.6421 122.59 19.7664 122.59 21.1865V21.6598H115.415V20.5504H120.785L120.475 20.9498V20.3581C120.475 19.4903 120.282 18.8196 119.898 18.3463C119.513 17.8729 118.985 17.6362 118.315 17.6362C117.664 17.6362 117.087 17.9222 116.584 18.4942C116.091 19.0563 115.844 19.9094 115.844 21.0533V21.4084C115.844 22.6411 116.155 23.6125 116.776 24.3225C117.407 25.0326 118.231 25.3876 119.247 25.3876C119.799 25.3876 120.292 25.284 120.726 25.077C121.16 24.8699 121.584 24.5148 121.998 24.0119L122.634 24.6036C122.181 25.4714 121.599 26.1174 120.889 26.5414C120.179 26.9655 119.375 27.1775 118.477 27.1775ZM126.46 27.1775C125.779 27.1775 125.187 27.0444 124.684 26.7781C124.191 26.502 123.807 26.1568 123.531 25.7426C123.264 25.3284 123.131 24.9192 123.131 24.5148C123.131 23.9626 123.304 23.5089 123.649 23.1539C123.994 22.7989 124.556 22.4981 125.335 22.2516L128.989 21.0681V19.9735C128.989 19.4212 128.738 18.9429 128.235 18.5386C127.742 18.1244 127.155 17.9173 126.474 17.9173C126.11 17.9173 125.863 17.9962 125.735 18.154C125.607 18.3019 125.528 18.5928 125.498 19.0267L125.439 20.1658C124.798 20.3137 124.26 20.294 123.827 20.1066C123.393 19.9192 123.176 19.6135 123.176 19.1895C123.176 18.8344 123.393 18.4696 123.827 18.0948C124.27 17.7102 124.803 17.3749 125.424 17.0889C126.045 16.8029 126.627 16.6205 127.17 16.5416C128.412 16.5416 129.408 16.8572 130.158 17.4883C130.907 18.1096 131.287 18.9331 131.297 19.9587L131.223 23.7012C131.223 24.0464 131.233 24.362 131.252 24.648C131.282 24.9241 131.331 25.1312 131.4 25.2693L132.909 25.5651V26.3935L131.637 26.8817C131.391 26.9704 131.164 27.0394 130.957 27.0888C130.759 27.1479 130.582 27.1775 130.424 27.1775C129.892 27.1775 129.532 26.9014 129.344 26.3491L129.048 25.3432L129.448 25.3876C128.432 26.5809 127.436 27.1775 126.46 27.1775ZM127.288 25.5651C127.899 25.5651 128.466 25.2791 128.989 24.7071V22.2516L126.667 22.8285C125.957 23.006 125.602 23.4103 125.602 24.0415C125.602 24.4359 125.764 24.791 126.09 25.1065C126.425 25.4123 126.825 25.5651 127.288 25.5651ZM132.445 27L132.371 26.0829L133.85 25.6982C133.87 25.5799 133.889 25.3284 133.909 24.9438C133.939 24.5493 133.959 23.9774 133.968 23.2279L133.983 21.4084C133.983 20.8956 133.963 20.4074 133.924 19.9439C133.885 19.4804 133.835 19.081 133.776 18.7457L132.252 18.4055V17.5327L135.773 16.586L136.261 16.9854L136.128 18.2723L136.187 18.2871C137.233 17.1234 138.382 16.5416 139.634 16.5416C140.541 16.5416 141.34 16.8917 142.03 17.5919C142.731 18.2822 143.081 19.3177 143.081 20.6983V23.2575C143.081 23.8097 143.091 24.3225 143.11 24.7959C143.14 25.2594 143.179 25.5602 143.229 25.6982L144.693 26.0829L144.619 27H139.442L139.397 26.0829L140.773 25.6982C140.793 25.5207 140.812 25.2347 140.832 24.8403C140.862 24.4458 140.877 23.9576 140.877 23.3758V20.9942C140.877 19.9981 140.64 19.293 140.167 18.8788C139.693 18.4548 139.175 18.2427 138.613 18.2427C137.627 18.2427 136.818 18.6816 136.187 19.5593V23.0947C136.187 23.7653 136.197 24.3324 136.217 24.7959C136.246 25.2594 136.276 25.5602 136.306 25.6982L137.785 26.0829L137.711 27H132.445ZM147.291 28.923C147.291 28.3511 147.207 27.8037 147.039 27.2811C146.881 26.7682 146.719 26.2456 146.551 25.713C146.393 25.1805 146.314 24.5987 146.314 23.9675C146.314 23.1391 146.566 22.4389 147.069 21.8669C147.582 21.2851 148.326 20.9251 149.302 20.7871V21.1125C148.316 20.9942 147.572 20.6687 147.069 20.1362C146.566 19.6037 146.314 18.9331 146.314 18.1244C146.314 17.4932 146.393 16.9114 146.551 16.3789C146.719 15.8365 146.881 15.3089 147.039 14.796C147.207 14.2734 147.291 13.731 147.291 13.1688C147.291 12.4687 147.079 11.9213 146.655 11.5269C146.231 11.1324 145.609 10.8612 144.791 10.7133L145.027 9.67778C146.556 9.89473 147.715 10.3139 148.504 10.9352C149.302 11.5564 149.702 12.4095 149.702 13.4943C149.702 14.0761 149.603 14.6678 149.406 15.2694C149.209 15.871 149.007 16.4528 148.8 17.0149C148.602 17.5771 148.504 18.1047 148.504 18.5978C148.504 19.1993 148.691 19.653 149.066 19.9587C149.441 20.2545 150.072 20.4222 150.959 20.4616V21.6451C150.072 21.6845 149.441 21.8571 149.066 22.1628C148.691 22.4586 148.504 22.9024 148.504 23.4941C148.504 23.9774 148.602 24.505 148.8 25.077C149.007 25.6391 149.209 26.2209 149.406 26.8225C149.603 27.4142 149.702 28.001 149.702 28.5828C149.702 29.6578 149.302 30.5108 148.504 31.1419C147.715 31.7731 146.556 32.1922 145.027 32.3993L144.791 31.3638C146.457 31.0778 147.291 30.2643 147.291 28.923ZM152.004 31.4378L151.619 30.6538C153.059 30.0029 153.779 29.1548 153.779 28.1095C153.779 27.7643 153.7 27.4931 153.542 27.2959C153.394 27.1085 153.222 26.9359 153.024 26.7781C152.827 26.6203 152.65 26.4379 152.492 26.2308C152.344 26.0237 152.27 25.7377 152.27 25.3728C152.27 24.9783 152.423 24.6332 152.728 24.3373C153.034 24.0316 153.429 23.8787 153.912 23.8787C154.375 23.8787 154.799 24.071 155.184 24.4557C155.579 24.8403 155.776 25.4714 155.776 26.3491C155.776 27.3846 155.44 28.3757 154.77 29.3225C154.099 30.2692 153.177 30.9743 152.004 31.4378Z"/>
    <path d="M251.951 13.0653H257.957C260.491 13.0653 262.459 13.6669 263.859 14.87C265.269 16.0633 265.974 17.7349 265.974 19.8847C265.974 21.2752 265.639 22.508 264.969 23.5829C264.308 24.648 263.396 25.4862 262.232 26.0976C261.068 26.6992 259.727 27 258.208 27H251.951L251.877 26.0089L253.341 25.6835C253.381 25.5454 253.415 25.1411 253.445 24.4705C253.475 23.79 253.489 23.006 253.489 22.1184V17.9913C253.489 17.0248 253.475 16.2112 253.445 15.5505C253.415 14.8897 253.381 14.5051 253.341 14.3966L251.877 14.0712L251.951 13.0653ZM255.93 14.441C255.93 14.6481 255.92 15.0081 255.901 15.5209C255.891 16.0337 255.886 16.8572 255.886 17.9913V22.1184C255.886 22.8087 255.896 23.4547 255.915 24.0563C255.935 24.6578 255.965 25.1263 256.004 25.4616C256.941 25.6095 257.74 25.6835 258.401 25.6835C261.596 25.6835 263.193 23.9823 263.193 20.58C263.193 18.4597 262.7 16.8818 261.714 15.8463C260.738 14.801 259.397 14.2783 257.691 14.2783C257.434 14.2783 257.158 14.2931 256.862 14.3227C256.566 14.3424 256.256 14.3818 255.93 14.441ZM271.678 27.1775C270.732 27.1775 269.879 26.9655 269.119 26.5414C268.37 26.1174 267.773 25.5207 267.329 24.7515C266.896 23.9823 266.679 23.0799 266.679 22.0445C266.679 20.9301 266.915 19.9587 267.389 19.1303C267.862 18.3019 268.478 17.6609 269.238 17.2072C270.007 16.7536 270.83 16.5317 271.708 16.5416C273.02 16.5514 274.026 16.9755 274.726 17.8137C275.436 18.6421 275.791 19.7664 275.791 21.1865V21.6598H268.616V20.5504H273.986L273.676 20.9498V20.3581C273.676 19.4903 273.483 18.8196 273.099 18.3463C272.714 17.8729 272.186 17.6362 271.516 17.6362C270.865 17.6362 270.288 17.9222 269.785 18.4942C269.292 19.0563 269.045 19.9094 269.045 21.0533V21.4084C269.045 22.6411 269.356 23.6125 269.977 24.3225C270.608 25.0326 271.432 25.3876 272.448 25.3876C273 25.3876 273.493 25.284 273.927 25.077C274.361 24.8699 274.785 24.5148 275.199 24.0119L275.835 24.6036C275.382 25.4714 274.8 26.1174 274.09 26.5414C273.38 26.9655 272.576 27.1775 271.678 27.1775ZM279.661 27.1775C278.98 27.1775 278.388 27.0444 277.885 26.7781C277.392 26.502 277.008 26.1568 276.732 25.7426C276.465 25.3284 276.332 24.9192 276.332 24.5148C276.332 23.9626 276.505 23.5089 276.85 23.1539C277.195 22.7989 277.757 22.4981 278.536 22.2516L282.19 21.0681V19.9735C282.19 19.4212 281.939 18.9429 281.436 18.5386C280.943 18.1244 280.356 17.9173 279.675 17.9173C279.311 17.9173 279.064 17.9962 278.936 18.154C278.808 18.3019 278.729 18.5928 278.699 19.0267L278.64 20.1658C277.999 20.3137 277.461 20.294 277.028 20.1066C276.594 19.9192 276.377 19.6135 276.377 19.1895C276.377 18.8344 276.594 18.4696 277.028 18.0948C277.471 17.7102 278.004 17.3749 278.625 17.0889C279.246 16.8029 279.828 16.6205 280.371 16.5416C281.613 16.5416 282.609 16.8572 283.359 17.4883C284.108 18.1096 284.488 18.9331 284.498 19.9587L284.424 23.7012C284.424 24.0464 284.434 24.362 284.453 24.648C284.483 24.9241 284.532 25.1312 284.601 25.2693L286.11 25.5651V26.3935L284.838 26.8817C284.592 26.9704 284.365 27.0394 284.158 27.0888C283.96 27.1479 283.783 27.1775 283.625 27.1775C283.093 27.1775 282.733 26.9014 282.545 26.3491L282.249 25.3432L282.649 25.3876C281.633 26.5809 280.637 27.1775 279.661 27.1775ZM280.489 25.5651C281.1 25.5651 281.667 25.2791 282.19 24.7071V22.2516L279.868 22.8285C279.158 23.006 278.803 23.4103 278.803 24.0415C278.803 24.4359 278.965 24.791 279.291 25.1065C279.626 25.4123 280.026 25.5651 280.489 25.5651ZM285.661 27L285.601 26.0829L287.066 25.6982C287.086 25.5898 287.105 25.3383 287.125 24.9438C287.155 24.5395 287.174 23.9675 287.184 23.2279L287.214 21.4084C287.214 20.8956 287.189 20.4074 287.14 19.9439C287.1 19.4804 287.051 19.081 286.992 18.7457L285.483 18.4055V17.5327L288.974 16.586L289.388 16.941L289.3 18.8936L289.373 18.9084C289.837 18.0208 290.31 17.4193 290.794 17.1037C291.277 16.7783 291.745 16.6155 292.199 16.6155C292.593 16.6155 292.919 16.7142 293.175 16.9114C293.441 17.1086 293.575 17.4094 293.575 17.8137C293.575 18.2378 293.432 18.5632 293.146 18.7901C292.869 19.0169 292.519 19.1303 292.095 19.1303C291.484 19.1303 290.917 18.869 290.394 18.3463L290.897 18.4646C290.325 18.8295 289.822 19.4705 289.388 20.3877L289.418 22.4734C289.438 23.1638 289.457 23.8196 289.477 24.4409C289.507 25.0523 289.536 25.4714 289.566 25.6982L291.622 26.0385L291.578 27H285.661ZM354.914 31.4378L354.529 30.6538C355.969 30.0029 356.689 29.1548 356.689 28.1095C356.689 27.7643 356.61 27.4931 356.452 27.2959C356.304 27.1085 356.132 26.9359 355.935 26.7781C355.737 26.6203 355.56 26.4379 355.402 26.2308C355.254 26.0237 355.18 25.7377 355.18 25.3728C355.18 24.9783 355.333 24.6332 355.639 24.3373C355.944 24.0316 356.339 23.8787 356.822 23.8787C357.286 23.8787 357.71 24.071 358.094 24.4557C358.489 24.8403 358.686 25.4714 358.686 26.3491C358.686 27.3846 358.351 28.3757 357.68 29.3225C357.01 30.2692 356.087 30.9743 354.914 31.4378Z"/>
    <path d="M348.182 24.7101L347.598 23.5012C347.601 23.4555 347.604 23.4095 347.604 23.3633C347.604 21.9929 346.179 20.7299 343.781 19.7186V20.5595C343.547 20.4667 343.304 20.3764 343.05 20.2891V19.8971C339.624 18.6614 334.523 17.8774 328.825 17.8774C323.847 17.8774 319.324 18.4759 315.976 19.4512V20.8167H315.976V19.1639C312.545 20.2541 310.418 21.7686 310.418 23.4432C310.418 23.7071 310.471 23.9671 310.574 24.2222L310.224 24.8442C310.224 24.8442 309.944 25.2074 310.437 25.9736C310.872 26.6494 313.05 29.2942 314.2 30.6793C314.694 31.3893 315.028 31.8267 315.058 31.7844C315.104 31.7174 314.751 30.3843 313.77 28.8633C313.312 28.0465 312.766 26.9641 312.438 26.1647C313.354 26.7444 318.734 29.4535 329.708 29.4425C340.924 29.4313 345.909 25.9206 346.456 25.4426C346.265 26.2108 345.612 27.7648 345.091 28.8576C344.235 30.4206 343.925 31.7814 343.965 31.8487C343.99 31.8911 344.282 31.4406 344.713 30.7105C345.715 29.2823 347.614 26.5558 347.994 25.8613C348.424 25.074 348.182 24.7101 348.182 24.7101Z" fill="#A52B00"/>
    <path d="M351.57 24.7034L347.734 21.8779C347.698 21.7522 347.662 21.6264 347.625 21.5017L348.885 19.6765C349.014 19.4909 349.04 19.2495 348.956 19.0378C348.872 18.8271 348.689 18.6761 348.473 18.6391L346.343 18.2775C346.26 18.1091 346.174 17.9432 346.087 17.7787L346.982 15.7294C347.074 15.5207 347.055 15.2781 346.932 15.0887C346.811 14.8983 346.604 14.7871 346.384 14.7958L344.222 14.8744C344.11 14.7285 343.997 14.5841 343.881 14.4423L344.377 12.2459C344.428 12.0229 344.364 11.7894 344.209 11.6274C344.054 11.466 343.83 11.3991 343.616 11.4514L341.51 11.9692C341.374 11.8486 341.235 11.7297 341.095 11.6131L341.171 9.35826C341.179 9.13002 341.073 8.9131 340.89 8.78639C340.707 8.65895 340.476 8.63981 340.276 8.73447L338.311 9.66854C338.153 9.57775 337.994 9.48787 337.833 9.40085L337.486 7.17888C337.451 6.95378 337.306 6.76253 337.103 6.67522C336.901 6.58738 336.669 6.61585 336.492 6.74948L334.74 8.06373C334.568 8.00644 334.394 7.95157 334.219 7.89902L333.464 5.79191C333.387 5.57712 333.21 5.41937 332.994 5.37499C332.779 5.33104 332.558 5.40554 332.409 5.57223L330.934 7.22171C330.756 7.20126 330.577 7.18255 330.399 7.16703L329.26 5.2489C329.145 5.05465 328.941 4.9364 328.722 4.9364C328.503 4.9364 328.299 5.05465 328.184 5.2489L327.045 7.16703C326.866 7.18255 326.687 7.20126 326.509 7.22171L325.035 5.57223C324.885 5.40554 324.663 5.33104 324.449 5.37499C324.233 5.41995 324.056 5.57712 323.98 5.79191L323.224 7.89902C323.049 7.95157 322.876 8.00683 322.703 8.06373L320.952 6.74948C320.774 6.61537 320.542 6.58699 320.339 6.67522C320.137 6.76253 319.992 6.95378 319.957 7.17888L319.609 9.40085C319.449 9.48787 319.29 9.57726 319.131 9.66854L317.167 8.73447C316.967 8.63942 316.734 8.65895 316.552 8.78639C316.37 8.9131 316.263 9.13002 316.272 9.35826L316.347 11.6131C316.207 11.7297 316.069 11.8486 315.932 11.9692L313.826 11.4514C313.612 11.3995 313.388 11.466 313.233 11.6274C313.077 11.7894 313.014 12.0229 313.064 12.2459L313.56 14.4423C313.445 14.5847 313.331 14.7285 313.22 14.8744L311.058 14.7958C310.839 14.7893 310.631 14.8983 310.509 15.0887C310.387 15.2781 310.369 15.5207 310.459 15.7294L311.355 17.7787C311.268 17.9432 311.182 18.1091 311.099 18.2775L308.968 18.6391C308.752 18.6756 308.569 18.8265 308.485 19.0378C308.402 19.2495 308.429 19.4909 308.556 19.6765L309.817 21.5017C309.807 21.534 309.798 21.5664 309.788 21.5988L306.225 25.3835C306.225 25.3835 305.679 25.8114 306.474 26.8171C307.175 27.7043 310.775 31.2211 312.675 33.0635C313.478 33.9988 314.028 34.5781 314.086 34.528C314.176 34.4485 313.7 32.7466 312.119 30.7499C310.9 28.9584 309.318 26.2031 309.689 25.8855C309.689 25.8855 310.111 25.3498 310.958 24.9642C310.989 24.989 310.926 24.9397 310.958 24.9642C310.958 24.9642 328.826 33.2066 345.4 25.1036C347.293 24.764 348.439 25.7783 348.439 25.7783C348.835 26.0074 347.811 28.8406 346.969 30.7161C345.825 32.8457 345.657 34.5074 345.754 34.565C345.815 34.6016 346.232 33.9678 346.826 32.9591C348.292 30.9164 351.063 27.0223 351.57 26.0764C352.145 25.004 351.57 24.7034 351.57 24.7034Z" fill="#F74C00"/>
    <path d="M343.758 23.6459C343.758 23.6459 346.329 23.5267 349.706 20.0944L350.184 19.0318C350.184 19.0318 344.943 13.8179 353.091 10.219C353.091 10.219 352.377 11.3847 352.587 15.8885C352.587 15.8885 355.043 15.0353 355.764 11.0569C355.764 11.0569 359.347 15.7814 351.872 20.2123C351.872 20.2123 348.365 25.8343 343.421 25.2958L343.758 23.6459Z" fill="#F74C00"/>
    <path d="M332.112 20.4079C332.112 20.4079 333.897 18.4527 335.683 20.4079C335.683 20.4079 337.086 23.015 335.683 24.3184C335.683 24.3184 333.387 26.1433 332.112 24.3184C332.112 24.3184 330.581 22.8845 332.112 20.4079Z" fill="black"/>
    <path d="M334.179 21.1333C334.179 21.8945 333.73 22.5118 333.177 22.5118C332.623 22.5118 332.174 21.8945 332.174 21.1333C332.174 20.3719 332.623 19.7546 333.177 19.7546C333.73 19.7546 334.179 20.3719 334.179 21.1333Z" fill="white"/>
    <path d="M324.142 19.8741C324.142 19.8741 327.205 18.518 328.041 21.545C328.041 21.545 328.917 25.0732 325.526 25.2724C325.526 25.2724 321.202 24.4395 324.142 19.8741Z" fill="black"/>
    <path d="M325.681 21.1833C325.681 21.9683 325.218 22.605 324.647 22.605C324.076 22.605 323.613 21.9683 323.613 21.1833C323.613 20.3979 324.076 19.7614 324.647 19.7614C325.218 19.7614 325.681 20.3979 325.681 21.1833Z" fill="white"/>
    <path d="M328.066 26.5059L331.972 26.1924C331.972 26.1924 331.84 26.8212 331.331 27.2932C331.331 27.2932 329.987 28.7662 328.446 27.1707C328.446 27.1707 328.193 26.8986 328.066 26.5059Z" fill="black"/>
    <path d="M312.426 22.8905C312.394 22.8905 312.362 22.8928 312.331 22.8953C311.062 22.6067 307.498 21.6778 306.555 20.1705C306.555 20.1705 311.352 14.7137 303.855 11.2258L304.728 17.263C304.728 17.263 302.416 15.7184 301.918 12.3634C301.918 12.3634 296.289 16.4483 304.402 20.3632C304.402 20.3632 305.138 23.1279 312.202 25.3338L312.207 25.3128C312.278 25.3259 312.351 25.3338 312.426 25.3338C313.094 25.3338 313.635 24.7869 313.635 24.1121C313.635 23.4374 313.094 22.8905 312.426 22.8905Z" fill="#F74C00"/>
    <path d="M227.832 19.9163L219.775 15.2643V24.5683L227.832 19.9163ZM220.58 19.1106H180.776V20.7221H220.58V19.1106Z"/>
</svg>
